<svg width="34" height="34" viewBox="0 0 34 34" fill="none" xmlns="http://www.w3.org/2000/svg">
<g clip-path="url(#clip0_412_716)">
<path d="M19.7011 7.75868L19.2465 7.16775L19.2452 7.16872C19.1125 7.27131 18.8825 7.39075 18.6044 7.48556C18.3293 7.57936 18.072 7.62694 17.8993 7.62969H16.0917C15.9228 7.62969 15.6666 7.5844 15.3901 7.49082C15.1133 7.39714 14.8836 7.27788 14.7509 7.17535L14.7497 7.17439L14.2923 7.76882C14.7497 7.17439 14.7493 7.17415 14.749 7.17388L14.7482 7.17325L14.746 7.17163L14.7399 7.16698L14.7203 7.15227C14.704 7.14012 14.6811 7.12337 14.6521 7.10257C14.5941 7.061 14.5112 7.00316 14.4056 6.93355C14.1946 6.7945 13.8916 6.60745 13.5146 6.4088C12.7645 6.01367 11.6996 5.56113 10.4685 5.36109C9.23205 5.16017 7.81183 5.21204 6.38445 5.8485C4.95432 6.48619 3.58123 7.68217 2.39458 9.66051C0.0657848 13.543 -0.621996 17.5838 -0.732898 20.6371C-0.78843 22.1659 -0.699681 23.4552 -0.596441 24.3655C-0.544789 24.821 -0.489413 25.1825 -0.446388 25.4326C-0.424872 25.5577 -0.40643 25.6551 -0.393067 25.7225C-0.386385 25.7562 -0.380971 25.7824 -0.377075 25.8009L-0.375456 25.8085C-0.200797 26.8829 0.181662 27.8743 0.871064 28.5826C1.59038 29.3215 2.5721 29.6777 3.758 29.5778C4.14388 29.5454 4.52697 29.3979 4.87431 29.2179C5.22943 29.0338 5.59444 28.7907 5.95331 28.5196C6.67087 27.9775 7.41699 27.2832 8.08436 26.6107C8.75461 25.9354 9.35992 25.2674 9.79683 24.7694C10.0156 24.5201 10.193 24.3124 10.3161 24.1666C10.3776 24.0936 10.4256 24.0361 10.4585 23.9965L10.4963 23.9509L10.5063 23.9387L10.509 23.9354L10.5098 23.9345L10.5101 23.9342C10.5101 23.9341 10.5102 23.934 9.93443 23.4625L10.5102 23.934L10.5112 23.9328C10.597 23.8275 10.7674 23.6944 10.9954 23.5868C11.2233 23.4792 11.4349 23.432 11.57 23.432H22.4328C22.5655 23.432 22.7762 23.4795 23.0058 23.5885C23.235 23.6974 23.408 23.8318 23.4952 23.9372L23.4968 23.9392L23.5069 23.9513L23.5447 23.997C23.5776 24.0365 23.6257 24.0941 23.6873 24.167C23.8106 24.3128 23.9881 24.5204 24.2072 24.7698C24.6446 25.2677 25.2505 25.9356 25.9211 26.6109C26.5888 27.2833 27.335 27.9775 28.0521 28.5195C28.4108 28.7905 28.7754 29.0336 29.13 29.2177C29.4767 29.3976 29.8592 29.5453 30.2446 29.5778C31.4268 29.6777 32.4082 29.3236 33.1284 28.5859C33.8192 27.8784 34.2036 26.8866 34.3783 25.8079L34.38 25.8002C34.3839 25.7817 34.3893 25.7555 34.3959 25.7217C34.4092 25.6543 34.4276 25.5569 34.449 25.4317C34.4918 25.1814 34.5469 24.8197 34.5983 24.3639C34.7008 23.453 34.7887 22.1629 34.7324 20.6333C34.6198 17.5786 33.9303 13.5362 31.6016 9.65387C30.4149 7.67553 29.0418 6.47955 27.6117 5.84186C26.1843 5.2054 24.7641 5.15353 23.5276 5.35445C22.2965 5.55449 21.2316 6.00703 20.4816 6.40216C20.1045 6.60081 19.8015 6.78786 19.5906 6.92691C19.4849 6.99652 19.402 7.05436 19.344 7.09593C19.315 7.11673 19.2922 7.13348 19.2758 7.14563L19.2562 7.16034L19.2501 7.16499L19.248 7.16661L19.2472 7.16724C19.2468 7.16751 19.2465 7.16775 19.7011 7.75868ZM10.999 13.5917H12.7721V14.8406H10.999H10.249V15.5906V17.4036H9.03324V15.5906V14.8406H8.28324H6.51009V13.5917H8.28324H9.03324V12.8417V11.0287H10.249V12.8417V13.5917H10.999ZM24.6973 16.8654L24.6973 16.8703C24.7011 17.4576 24.2455 17.9407 23.6694 17.9789C23.6485 17.9771 23.6277 17.9763 23.6072 17.9763C23.58 17.9763 23.5538 17.9778 23.5288 17.9804C22.9372 17.9557 22.4667 17.4769 22.459 16.8757C22.451 16.2549 22.9422 15.7509 23.5646 15.7429C24.1841 15.735 24.6871 16.2239 24.6973 16.8443L24.6973 16.8654ZM23.6014 12.8353V12.8353L23.5918 12.8354C22.9719 12.8434 22.4643 12.3522 22.4523 11.725C22.4405 11.1132 22.9311 10.6025 23.5627 10.5903C24.1725 10.5786 24.6819 11.0659 24.6973 11.6944L24.6973 11.7129L24.6973 11.7178C24.7013 12.3269 24.2172 12.8252 23.6026 12.8353H23.6026H23.6026H23.6025H23.6025H23.6025H23.6024H23.6024H23.6023H23.6023H23.6023H23.6022H23.6022H23.6022H23.6021H23.6021H23.6021H23.602H23.602H23.602H23.6019H23.6019H23.6018H23.6018H23.6018H23.6017H23.6017H23.6017H23.6016H23.6016H23.6015H23.6015H23.6015H23.6014ZM29.2855 14.4817H29.2854L29.2855 14.4915C29.2933 15.0854 28.8094 15.5896 28.1865 15.5976C27.5674 15.6055 27.0605 15.1156 27.0471 14.4897C27.0404 13.8699 27.5311 13.3672 28.1527 13.3592C28.7722 13.3513 29.2753 13.8402 29.2855 14.4606V14.4817Z" fill="url(#paint0_linear_412_716)" stroke="#441B77" stroke-width="1.5"/>
</g>
<defs>
<linearGradient id="paint0_linear_412_716" x1="17" y1="6" x2="17.6702" y2="24.3538" gradientUnits="userSpaceOnUse">
<stop stop-color="white"/>
<stop offset="1" stop-color="#BEADCD"/>
</linearGradient>
<clipPath id="clip0_412_716">
<rect width="34" height="34" fill="white"/>
</clipPath>
</defs>
</svg>
