<svg width="34" height="34" viewBox="0 0 34 34" fill="none" xmlns="http://www.w3.org/2000/svg">
<path d="M6.39188 10.1513V10.9013V24.2675C6.39188 24.3814 6.48428 24.4738 6.59812 24.4738C6.71198 24.4738 6.80438 24.3814 6.80438 24.2675V6.61939C6.80438 5.03642 8.09641 3.74438 9.67937 3.74438H29.75C31.333 3.74438 32.625 5.03642 32.625 6.61939V25.2556C32.625 28.0221 30.3651 30.2556 27.6069 30.2556C25.3944 30.2556 23.1762 30.2682 20.9552 30.2808C16.5029 30.3061 12.0394 30.3315 7.58833 30.2555C7.52064 30.2544 7.45238 30.2534 7.38363 30.2523C5.85653 30.2297 4.0813 30.2034 2.65039 28.5724L6.39188 10.1513ZM6.39188 10.1513H5.64188M6.39188 10.1513H5.64188M5.64188 10.1513H4.25M5.64188 10.1513H4.25M4.25 10.1513C2.66948 10.1513 1.375 11.4302 1.375 13.0263M4.25 10.1513L1.375 13.0263M1.375 13.0263V25.0293M1.375 13.0263V25.0293M1.375 25.0293C1.375 26.294 1.78111 27.5819 2.65026 28.5722L1.375 25.0293ZM13.6679 12.0635H13.6689V11.3135C13.6689 11.0753 13.8623 10.882 14.1004 10.882H25.3385C25.5767 10.882 25.77 11.0753 25.77 11.3135V13.9294C25.77 14.1675 25.5767 14.3609 25.3385 14.3609H14.0994C13.8612 14.3609 13.6679 14.1675 13.6679 13.9294V12.0635ZM12.9136 19.2821H14.5297C14.6435 19.2821 14.7359 19.3745 14.7359 19.4884C14.7359 19.6022 14.6435 19.6946 14.5297 19.6946H12.9136C12.7998 19.6946 12.7074 19.6022 12.7074 19.4884C12.7074 19.3745 12.7998 19.2821 12.9136 19.2821ZM21.3191 24.0732H12.9136C12.7998 24.0732 12.7074 23.9808 12.7074 23.8669C12.7074 23.7531 12.7998 23.6607 12.9136 23.6607H21.3191C21.4329 23.6607 21.5253 23.7531 21.5253 23.8669C21.5253 23.9808 21.4329 24.0732 21.3191 24.0732ZM26.5179 24.0732H24.9018C24.788 24.0732 24.6956 23.9808 24.6956 23.8669C24.6956 23.7531 24.788 23.6607 24.9018 23.6607H26.5179C26.6317 23.6607 26.7241 23.7531 26.7241 23.8669C26.7241 23.9808 26.6317 24.0732 26.5179 24.0732ZM26.5179 19.6946H18.1135C17.9997 19.6946 17.9073 19.6022 17.9073 19.4884C17.9073 19.3745 17.9997 19.2821 18.1135 19.2821H26.5179C26.6317 19.2821 26.7241 19.3745 26.7241 19.4884C26.7241 19.6022 26.6317 19.6946 26.5179 19.6946Z" fill="url(#paint0_linear_427_414)" stroke="#441B77" stroke-width="1.5"/>
<defs>
<linearGradient id="paint0_linear_427_414" x1="17" y1="4.49438" x2="17.9212" y2="24.6143" gradientUnits="userSpaceOnUse">
<stop stop-color="white"/>
<stop offset="1" stop-color="#BEADCD"/>
</linearGradient>
</defs>
</svg>
