<svg width="34" height="34" viewBox="0 0 34 34" fill="none" xmlns="http://www.w3.org/2000/svg">
<g clip-path="url(#clip0_412_767)">
<path d="M31.7254 4.03305L31.7237 4.03119C30.7703 2.97372 29.6054 2.12827 28.3045 1.54959C27.0036 0.970899 25.5957 0.671875 24.1719 0.671875C22.7481 0.671875 21.3401 0.970899 20.0392 1.54959C18.9088 2.05243 17.8811 2.75669 17.0056 3.62645C16.1294 2.75922 15.1018 2.05719 13.9721 1.55599C12.6719 0.979195 11.2654 0.681193 9.84299 0.681193C8.42064 0.681193 7.01406 0.979195 5.7139 1.55599L6.01804 2.24156L5.7139 1.55599C4.41374 2.13279 3.24885 2.97559 2.2943 4.03007L2.29394 4.03047C0.341491 6.19044 -0.739502 8.99836 -0.739502 11.91C-0.739502 14.8216 0.341491 17.6295 2.29394 19.7895L2.29389 19.7895L2.30083 19.797L13.4089 31.7551L13.4103 31.7566C13.8704 32.2492 14.4269 32.6419 15.0451 32.9105C15.6634 33.179 16.3302 33.3175 17.0042 33.3175C17.6783 33.3175 18.3451 33.179 18.9634 32.9105C19.5816 32.6419 20.1381 32.2492 20.5982 31.7566L20.5996 31.7551L31.7077 19.797L31.7077 19.7971L31.7163 19.7876C33.6584 17.6239 34.7334 14.8195 34.7351 11.912C34.7368 9.00461 33.665 6.19891 31.7254 4.03305Z" fill="url(#paint0_linear_412_767)" stroke="#441B77" stroke-width="1.5"/>
</g>
<defs>
<linearGradient id="paint0_linear_412_767" x1="16.9978" y1="1.42188" x2="18.2431" y2="26.4164" gradientUnits="userSpaceOnUse">
<stop stop-color="white"/>
<stop offset="1" stop-color="#BEADCD"/>
</linearGradient>
<clipPath id="clip0_412_767">
<rect width="34" height="34" fill="white"/>
</clipPath>
</defs>
</svg>
