<svg width="34" height="34" viewBox="0 0 34 34" fill="none" xmlns="http://www.w3.org/2000/svg">
<g clip-path="url(#clip0_412_770)">
<path d="M31.6666 13.4583V12.9583H31.6164C31.0003 5.43323 24.6804 -0.5 16.9999 -0.5C9.31946 -0.5 2.9995 5.43323 2.38346 12.9583H2.33325V13.4583V14.1667C2.33325 22.2543 8.91228 28.8333 16.9999 28.8333C25.0876 28.8333 31.6666 22.2543 31.6666 14.1667V13.4583ZM15.5841 13.3818H16.0833V13.3804V12.4784V8.5C16.0833 7.99414 16.4941 7.58333 16.9999 7.58333C17.5058 7.58333 17.9166 7.99414 17.9166 8.5V14.1667C17.9166 14.4824 17.7537 14.776 17.4853 14.9443C17.4853 14.9443 17.4853 14.9443 17.4852 14.9443L13.0204 17.7348L13.0201 17.735C12.592 18.0031 12.0261 17.8728 11.757 17.443C11.4887 17.0131 11.6197 16.4473 12.0491 16.1785L15.8482 13.8044L15.5841 13.3818ZM31.6666 23.5535V21.8976L30.7501 23.2768C27.7913 27.7295 22.7324 30.6681 16.9999 30.6681C11.2674 30.6681 6.20854 27.7295 3.24969 23.2768L2.33325 21.8976V23.5535V28.3347C2.33325 31.7403 5.09436 34.5014 8.49992 34.5014H25.4999C28.9055 34.5014 31.6666 31.7403 31.6666 28.3347V23.5535Z" fill="url(#paint0_linear_412_770)" stroke="#441B77"/>
</g>
<defs>
<linearGradient id="paint0_linear_412_770" x1="16.9999" y1="0" x2="18.7764" y2="27.2381" gradientUnits="userSpaceOnUse">
<stop stop-color="white"/>
<stop offset="1" stop-color="#BEADCD"/>
</linearGradient>
<clipPath id="clip0_412_770">
<rect width="34" height="34" fill="white"/>
</clipPath>
</defs>
</svg>
