<svg width="34" height="34" viewBox="0 0 34 34" fill="none" xmlns="http://www.w3.org/2000/svg">
<path d="M6.17917 2.25C4.00914 2.25 2.25 4.00914 2.25 6.17917V18.8958C2.25 21.0659 4.00914 22.825 6.17917 22.825H10.425V27.0708C10.425 29.2409 12.1841 31 14.3542 31H27.0708C29.2409 31 31 29.2409 31 27.0708V14.3542C31 12.1841 29.2409 10.425 27.0708 10.425H22.825V6.17917C22.825 4.00914 21.0659 2.25 18.8958 2.25H6.17917ZM13.9 21.325H11.925V19.35V12.9917C11.925 12.4026 12.4026 11.925 12.9917 11.925H19.35H21.325V13.9V20.2583C21.325 20.8475 20.8475 21.325 20.2583 21.325H13.9Z" fill="url(#paint0_linear_412_1026)" stroke="#441B77" stroke-width="1.5"/>
<defs>
<linearGradient id="paint0_linear_412_1026" x1="16.625" y1="3" x2="17.8129" y2="24.8579" gradientUnits="userSpaceOnUse">
<stop stop-color="white"/>
<stop offset="1" stop-color="#BEADCD"/>
</linearGradient>
</defs>
</svg>
